<?xml version="1.0" encoding="UTF-8"?>
<svg width="80px" height="29px" viewBox="0 0 80 29" version="1.1" xmlns="http://www.w3.org/2000/svg" xmlns:xlink="http://www.w3.org/1999/xlink">
    <!-- Generator: Sketch 43.2 (39069) - http://www.bohemiancoding.com/sketch -->
    <title>logo</title>
    <desc>Created with Sketch.</desc>
    <defs></defs>
    <g id="Page-1" stroke="none" stroke-width="1" fill="none" fill-rule="evenodd">
        <g id="logo" fill-rule="nonzero" fill="#000000">
            <path d="M16.968,19.1886194 C16.968,23.0812538 13.7108571,26.2372343 9.696,26.2372343 C5.68114286,26.2372343 2.42285714,23.0790383 2.42285714,19.1908348 L2.42285714,0.392312803 L0,0.392312803 L0,19.1886194 C0,24.3795371 4.34057143,28.5845571 9.696,28.5845571 C15.0514286,28.5845571 19.3908571,24.3784293 19.3908571,19.1886194 L19.3908571,0.392312803 L16.968,0.392312803 L16.968,19.1886194 L16.968,19.1886194 Z M41.208,7.6425383 L33.7257143,0.392312803 L30.2971429,0.392312803 L39.4925714,9.3041637 L41.2068571,10.9657891 L42.9211429,9.3041637 L52.1142857,0.392312803 L48.6857143,0.392312803 L41.208,7.6425383 Z M41.208,18.0132963 L39.4937143,19.6749217 L30.2994286,28.5856648 L33.728,28.5856648 L41.208,21.3376548 L48.6857143,28.5845571 L52.1142857,28.5845571 L42.9211429,19.6749217 L41.2068571,18.0132963 L41.208,18.0132963 Z M75.1428571,2.74074337 L79.9885714,2.74074337 L79.9885714,0.392312803 L75.1428571,0.392312803 C67.1108571,0.392312803 60.5977143,6.70427383 60.5977143,14.4895427 C60.5977143,22.2748116 67.1097143,28.5867726 75.1417143,28.5867726 L79.9874286,28.5867726 L79.9874286,26.238342 L75.1417143,26.238342 C68.448,26.238342 63.0217143,20.9787437 63.0217143,14.4906504 C63.0217143,8.00144939 68.448,2.74185112 75.1405714,2.74185112 L75.1428571,2.74074337 Z" id="Shape"></path>
        </g>
    </g>
</svg>